<svg width="31" height="30" viewBox="0 0 31 30" fill="none" xmlns="http://www.w3.org/2000/svg">
<g filter="url(#filter0_f_46_726)">
<path d="M26.0337 22.2342C26.0278 23.6439 25.3147 24.6757 24.1082 25.3713C23.5452 25.6961 22.9317 25.8167 22.281 25.8083C21.1584 25.7935 20.0354 25.8007 18.9124 25.8083C18.748 25.8083 18.6894 25.7843 18.6902 25.5974C18.6975 23.0501 18.6975 20.5025 18.6902 17.9544C18.6902 17.7764 18.7404 17.7346 18.9129 17.7359C19.9582 17.7439 21.0036 17.7359 22.0495 17.7439C22.2131 17.7439 22.2578 17.7042 22.2565 17.5376C22.2481 16.4921 22.2481 15.4464 22.2565 14.4005C22.2565 14.2263 22.2013 14.198 22.0457 14.1989C20.9914 14.2052 19.9405 14.1989 18.888 14.2061C18.7277 14.2061 18.6847 14.1605 18.6915 14.0048C18.7113 13.5434 18.6632 13.0794 18.718 12.6187C18.7728 12.1581 19.0647 11.8 19.6015 11.8173C20.4284 11.8434 21.2571 11.8206 22.0853 11.8278C22.2257 11.8278 22.2565 11.7882 22.254 11.6536C22.2486 10.5867 22.2486 9.51987 22.254 8.45322C22.254 8.3136 22.2156 8.28154 22.0802 8.28449C21.1892 8.29082 20.2977 8.27521 19.4071 8.29082C18.1686 8.31275 17.1965 8.86745 16.4358 9.82583C15.7147 10.734 15.3976 11.7776 15.387 12.9254C15.3836 13.2759 15.3769 13.6273 15.3904 13.9778C15.3971 14.1525 15.3647 14.2141 15.169 14.2103C14.4395 14.1959 13.7095 14.2103 12.98 14.201C12.8357 14.201 12.7923 14.2314 12.7936 14.3828C12.8006 15.4424 12.8006 16.5022 12.7936 17.5621C12.7936 17.7097 12.8298 17.7477 12.9778 17.7464C13.7213 17.7384 14.4652 17.7464 15.2091 17.7388C15.3609 17.7367 15.3895 17.7831 15.3895 17.9257C15.3853 20.494 15.3853 23.0627 15.3895 25.6316C15.3895 25.7872 15.3402 25.8092 15.201 25.8092C12.8644 25.8045 10.5273 25.8155 8.19071 25.8007C7.32623 25.7957 6.57602 25.4413 5.94685 24.8643C5.11736 24.105 4.72392 23.1559 4.72856 22.0161C4.74247 17.3491 4.71801 12.682 4.74458 8.01494C4.75217 6.65161 5.46147 5.64429 6.62325 4.95672C7.21363 4.60661 7.86221 4.49019 8.54873 4.49272C10.8225 4.50579 13.0959 4.49778 15.3697 4.49778H22.4252C24.3874 4.49778 26.0413 6.14837 26.0413 8.1069C26.0413 12.8157 26.0535 17.525 26.0337 22.2342Z" fill="white"/>
</g>
<path d="M26.0337 22.2342C26.0278 23.6439 25.3147 24.6757 24.1082 25.3713C23.5452 25.6961 22.9317 25.8167 22.281 25.8083C21.1584 25.7935 20.0354 25.8007 18.9124 25.8083C18.748 25.8083 18.6894 25.7843 18.6902 25.5974C18.6975 23.0501 18.6975 20.5025 18.6902 17.9544C18.6902 17.7764 18.7404 17.7346 18.9129 17.7359C19.9582 17.7439 21.0036 17.7359 22.0495 17.7439C22.2131 17.7439 22.2578 17.7042 22.2565 17.5376C22.2481 16.4921 22.2481 15.4464 22.2565 14.4005C22.2565 14.2263 22.2013 14.198 22.0457 14.1989C20.9914 14.2052 19.9405 14.1989 18.888 14.2061C18.7277 14.2061 18.6847 14.1605 18.6915 14.0048C18.7113 13.5434 18.6632 13.0794 18.718 12.6187C18.7728 12.1581 19.0647 11.8 19.6015 11.8173C20.4284 11.8434 21.2571 11.8206 22.0853 11.8278C22.2257 11.8278 22.2565 11.7882 22.254 11.6536C22.2486 10.5867 22.2486 9.51987 22.254 8.45322C22.254 8.3136 22.2156 8.28154 22.0802 8.28449C21.1892 8.29082 20.2977 8.27521 19.4071 8.29082C18.1686 8.31275 17.1965 8.86745 16.4358 9.82583C15.7147 10.734 15.3976 11.7776 15.387 12.9254C15.3836 13.2759 15.3769 13.6273 15.3904 13.9778C15.3971 14.1525 15.3647 14.2141 15.169 14.2103C14.4395 14.1959 13.7095 14.2103 12.98 14.201C12.8357 14.201 12.7923 14.2314 12.7936 14.3828C12.8006 15.4424 12.8006 16.5022 12.7936 17.5621C12.7936 17.7097 12.8298 17.7477 12.9778 17.7464C13.7213 17.7384 14.4652 17.7464 15.2091 17.7388C15.3609 17.7367 15.3895 17.7831 15.3895 17.9257C15.3853 20.494 15.3853 23.0627 15.3895 25.6316C15.3895 25.7872 15.3402 25.8092 15.201 25.8092C12.8644 25.8045 10.5273 25.8155 8.19071 25.8007C7.32623 25.7957 6.57602 25.4413 5.94685 24.8643C5.11736 24.105 4.72392 23.1559 4.72856 22.0161C4.74247 17.3491 4.71801 12.682 4.74458 8.01494C4.75217 6.65161 5.46147 5.64429 6.62325 4.95672C7.21363 4.60661 7.86221 4.49019 8.54873 4.49272C10.8225 4.50579 13.0959 4.49778 15.3697 4.49778H22.4252C24.3874 4.49778 26.0413 6.14837 26.0413 8.1069C26.0413 12.8157 26.0535 17.525 26.0337 22.2342Z" fill="white"/>
<defs>
<filter id="filter0_f_46_726" x="0.728516" y="0.492676" width="29.3164" height="29.3165" filterUnits="userSpaceOnUse" color-interpolation-filters="sRGB">
<feFlood flood-opacity="0" result="BackgroundImageFix"/>
<feBlend mode="normal" in="SourceGraphic" in2="BackgroundImageFix" result="shape"/>
<feGaussianBlur stdDeviation="2" result="effect1_foregroundBlur_46_726"/>
</filter>
</defs>
</svg>
