<svg width="31" height="31" viewBox="0 0 31 31" fill="none" xmlns="http://www.w3.org/2000/svg">
<g clip-path="url(#clip0_46_703)" filter="url(#filter0_f_46_703)">
<path d="M26.3604 15.5468C26.3604 14.8243 26.3604 14.1017 26.3604 13.3792C26.3604 12.6567 26.3423 11.9307 26.3081 11.2068C26.2913 10.7164 26.2464 10.2274 26.1736 9.74219C26.0847 9.15928 25.9186 8.59079 25.6798 8.05166C25.0103 6.57593 23.9122 5.56142 22.3854 5.00814C21.6711 4.75848 20.9249 4.61217 20.1692 4.57365C19.7403 4.54575 19.31 4.52971 18.8797 4.51716C18.1238 4.49554 17.3678 4.48926 16.6119 4.49205C14.6446 4.50042 12.6773 4.45857 10.7114 4.56179C10.295 4.58013 9.88007 4.62298 9.46871 4.69011C8.9872 4.77085 8.51519 4.90054 8.06002 5.07718C6.80116 5.55809 5.76014 6.48045 5.13106 7.67226C4.70288 8.45825 4.48948 9.31398 4.38836 10.1997C4.34443 10.5847 4.32769 10.9717 4.31025 11.3581C4.28445 11.9363 4.26841 12.5144 4.26841 13.0926C4.26841 15.1744 4.23564 17.2555 4.2977 19.3365C4.31374 19.877 4.33257 20.4175 4.39743 20.9545C4.44329 21.3511 4.51882 21.7437 4.62338 22.129C4.86816 23.0112 5.26357 23.8139 5.87865 24.5002C6.45416 25.1506 7.17268 25.6586 7.97773 25.9843C8.65001 26.2489 9.35616 26.4177 10.0754 26.4857C10.3844 26.5171 10.6947 26.5318 11.0043 26.5464C11.6385 26.5766 12.2726 26.5929 12.9068 26.5952C14.1125 26.6008 15.3176 26.5994 16.5233 26.6001C17.5638 26.6001 18.6043 26.5945 19.6441 26.545C20.0848 26.5241 20.5248 26.4969 20.9621 26.4327C21.4255 26.367 21.8815 26.2572 22.3241 26.105C23.189 25.8109 23.9701 25.3123 24.601 24.6515C25.211 24.0109 25.6645 23.2377 25.926 22.3926C26.1271 21.7413 26.247 21.0676 26.283 20.3868C26.3207 19.7871 26.3409 19.1866 26.3528 18.5861C26.3709 17.5721 26.3604 16.5594 26.3604 15.5468ZM24.3618 18.197C24.3576 18.8072 24.336 19.4167 24.306 20.0263C24.2879 20.5661 24.2096 21.1023 24.0724 21.6248C23.8903 22.3235 23.5121 22.9556 22.9824 23.4464C22.5965 23.798 22.141 24.0646 21.6455 24.2289C21.3237 24.3366 20.9927 24.4148 20.6567 24.4625C20.2823 24.5121 19.9057 24.5428 19.5283 24.5546C18.1217 24.6181 16.7144 24.6006 15.3071 24.5957C14.3524 24.5957 13.3977 24.5957 12.443 24.5957C11.9025 24.5957 11.3621 24.5692 10.8216 24.5427C10.2971 24.5237 9.77608 24.4494 9.26717 24.321C8.26714 24.0546 7.48469 23.4945 6.95051 22.6025C6.73179 22.2202 6.5748 21.8057 6.48536 21.3744C6.38508 20.9089 6.32789 20.4353 6.3145 19.9593C6.21408 17.6509 6.25871 15.341 6.25941 13.0312C6.25941 12.4189 6.28242 11.8072 6.31101 11.1963C6.32705 10.8692 6.34588 10.5428 6.394 10.2199C6.50419 9.4695 6.7141 8.75535 7.18343 8.14232C7.60696 7.57553 8.18778 7.14577 8.85363 6.9065C9.28233 6.75534 9.72687 6.65355 10.1786 6.60313C10.5915 6.5557 11.0064 6.54175 11.4214 6.52641C13.0211 6.46922 14.6216 6.48736 16.2221 6.48666C17.0094 6.48666 17.7974 6.48666 18.5855 6.50549C19.0471 6.51665 19.5095 6.53269 19.9704 6.56128C20.5021 6.58811 21.0288 6.67753 21.5395 6.82769C22.3787 7.07435 23.1026 7.61186 23.5814 8.34387C23.8324 8.73755 24.0134 9.17171 24.1163 9.62712C24.2073 10.0008 24.2645 10.382 24.2872 10.766C24.3729 12.043 24.366 13.3213 24.3715 14.6018C24.375 15.7992 24.3701 16.9995 24.3618 18.1991V18.197Z" fill="white"/>
<path d="M15.2944 9.86906C14.1721 9.87237 13.0761 10.2082 12.1446 10.8341C11.2132 11.4601 10.4881 12.348 10.061 13.3859C9.63393 14.4237 9.52397 15.5648 9.74503 16.6651C9.96609 17.7654 10.5083 18.7755 11.303 19.5678C12.0978 20.3601 13.1096 20.8991 14.2105 21.1166C15.3114 21.3342 16.4521 21.2206 17.4885 20.7902C18.5249 20.3597 19.4105 19.6318 20.0334 18.6983C20.6564 17.7648 20.9887 16.6676 20.9884 15.5453C20.9877 14.7986 20.8398 14.0593 20.5531 13.3698C20.2665 12.6803 19.8467 12.054 19.3179 11.5268C18.7891 10.9996 18.1615 10.5819 17.4711 10.2974C16.7807 10.013 16.041 9.86741 15.2944 9.86906ZM15.3076 19.2305C14.5792 19.2296 13.8674 19.0129 13.2621 18.6075C12.6569 18.2022 12.1854 17.6265 11.9073 16.9532C11.6292 16.2799 11.5569 15.5393 11.6997 14.825C11.8424 14.1106 12.1937 13.4547 12.7091 12.9399C13.2246 12.4252 13.8811 12.0749 14.5956 11.9333C15.3101 11.7916 16.0505 11.865 16.7233 12.1442C17.3961 12.4233 17.9711 12.8957 18.3755 13.5016C18.7799 14.1075 18.9956 14.8197 18.9953 15.5481C18.9938 16.5252 18.6046 17.4619 17.9132 18.1523C17.2218 18.8427 16.2847 19.2305 15.3076 19.2305ZM21.2109 8.3194C20.9492 8.32023 20.6936 8.39854 20.4763 8.54446C20.259 8.69038 20.0899 8.89738 19.9901 9.13933C19.8903 9.38129 19.8644 9.64737 19.9157 9.90403C19.967 10.1607 20.0931 10.3964 20.2781 10.5815C20.4632 10.7665 20.6989 10.8926 20.9555 10.9439C21.2122 10.9952 21.4782 10.9693 21.7202 10.8695C21.9621 10.7697 22.1691 10.6005 22.315 10.3833C22.4609 10.166 22.5392 9.9104 22.54 9.64868C22.5406 9.47396 22.5066 9.30086 22.44 9.13933C22.3734 8.97781 22.2755 8.83105 22.152 8.70751C22.0284 8.58396 21.8817 8.48607 21.7202 8.41946C21.5587 8.35286 21.3856 8.31885 21.2109 8.3194Z" fill="white"/>
<path d="M15.2944 9.86903C14.1721 9.87234 13.0761 10.2082 12.1446 10.8341C11.2132 11.4601 10.4881 12.348 10.061 13.3858C9.63393 14.4237 9.52397 15.5648 9.74503 16.6651C9.96609 17.7654 10.5083 18.7755 11.303 19.5678C12.0978 20.3601 13.1096 20.8991 14.2105 21.1166C15.3114 21.3342 16.4521 21.2206 17.4885 20.7901C18.5249 20.3597 19.4105 19.6318 20.0334 18.6983C20.6564 17.7648 20.9887 16.6676 20.9884 15.5453C20.9877 14.7986 20.8398 14.0593 20.5531 13.3698C20.2665 12.6802 19.8467 12.054 19.3179 11.5268C18.7891 10.9996 18.1615 10.5818 17.4711 10.2974C16.7807 10.0129 16.041 9.86738 15.2944 9.86903ZM15.3076 19.2304C14.5792 19.2296 13.8674 19.0128 13.2621 18.6075C12.6569 18.2021 12.1854 17.6265 11.9073 16.9532C11.6292 16.2799 11.5569 15.5393 11.6997 14.825C11.8424 14.1106 12.1937 13.4546 12.7091 12.9399C13.2246 12.4252 13.8811 12.0749 14.5956 11.9333C15.3101 11.7916 16.0505 11.865 16.7233 12.1442C17.3962 12.4233 17.9711 12.8957 18.3755 13.5016C18.7799 14.1074 18.9956 14.8196 18.9953 15.5481C18.9938 16.5252 18.6046 17.4618 17.9132 18.1522C17.2218 18.8427 16.2847 19.2304 15.3076 19.2304Z" fill="white"/>
<path d="M21.2107 8.3194C21.4728 8.3194 21.729 8.39711 21.9469 8.54271C22.1648 8.68832 22.3346 8.89527 22.4349 9.1374C22.5352 9.37952 22.5614 9.64596 22.5103 9.903C22.4592 10.16 22.333 10.3961 22.1477 10.5815C21.9624 10.7668 21.7263 10.893 21.4692 10.9441C21.2122 10.9952 20.9458 10.969 20.7037 10.8687C20.4616 10.7684 20.2546 10.5986 20.109 10.3807C19.9634 10.1628 19.8857 9.90656 19.8857 9.64449C19.8857 9.29305 20.0253 8.95601 20.2738 8.70751C20.5223 8.459 20.8593 8.3194 21.2107 8.3194Z" fill="white"/>
</g>
<g clip-path="url(#clip1_46_703)">
<path d="M26.3604 15.5468C26.3604 14.8243 26.3604 14.1017 26.3604 13.3792C26.3604 12.6567 26.3423 11.9307 26.3081 11.2068C26.2913 10.7164 26.2464 10.2274 26.1736 9.74219C26.0847 9.15928 25.9186 8.59079 25.6798 8.05166C25.0103 6.57593 23.9122 5.56142 22.3854 5.00814C21.6711 4.75848 20.9249 4.61217 20.1692 4.57365C19.7403 4.54575 19.31 4.52971 18.8797 4.51716C18.1238 4.49554 17.3678 4.48926 16.6119 4.49205C14.6446 4.50042 12.6773 4.45857 10.7114 4.56179C10.295 4.58013 9.88007 4.62298 9.46871 4.69011C8.9872 4.77085 8.51519 4.90054 8.06002 5.07718C6.80116 5.55809 5.76014 6.48045 5.13106 7.67226C4.70288 8.45825 4.48948 9.31398 4.38836 10.1997C4.34443 10.5847 4.32769 10.9717 4.31025 11.3581C4.28445 11.9363 4.26841 12.5144 4.26841 13.0926C4.26841 15.1744 4.23564 17.2555 4.2977 19.3365C4.31374 19.877 4.33257 20.4175 4.39743 20.9545C4.44329 21.3511 4.51882 21.7437 4.62338 22.129C4.86816 23.0112 5.26357 23.8139 5.87865 24.5002C6.45416 25.1506 7.17268 25.6586 7.97773 25.9843C8.65001 26.2489 9.35616 26.4177 10.0754 26.4857C10.3844 26.5171 10.6947 26.5318 11.0043 26.5464C11.6385 26.5766 12.2726 26.5929 12.9068 26.5952C14.1125 26.6008 15.3176 26.5994 16.5233 26.6001C17.5638 26.6001 18.6043 26.5945 19.6441 26.545C20.0848 26.5241 20.5248 26.4969 20.9621 26.4327C21.4255 26.367 21.8815 26.2572 22.3241 26.105C23.189 25.8109 23.9701 25.3123 24.601 24.6515C25.211 24.0109 25.6645 23.2377 25.926 22.3926C26.1271 21.7413 26.247 21.0676 26.283 20.3868C26.3207 19.7871 26.3409 19.1866 26.3528 18.5861C26.3709 17.5721 26.3604 16.5594 26.3604 15.5468ZM24.3618 18.197C24.3576 18.8072 24.336 19.4167 24.306 20.0263C24.2879 20.5661 24.2096 21.1023 24.0724 21.6248C23.8903 22.3235 23.5121 22.9556 22.9824 23.4464C22.5965 23.798 22.141 24.0646 21.6455 24.2289C21.3237 24.3366 20.9927 24.4148 20.6567 24.4625C20.2823 24.5121 19.9057 24.5428 19.5283 24.5546C18.1217 24.6181 16.7144 24.6006 15.3071 24.5957C14.3524 24.5957 13.3977 24.5957 12.443 24.5957C11.9025 24.5957 11.3621 24.5692 10.8216 24.5427C10.2971 24.5237 9.77608 24.4494 9.26717 24.321C8.26714 24.0546 7.48469 23.4945 6.95051 22.6025C6.73179 22.2202 6.5748 21.8057 6.48536 21.3744C6.38508 20.9089 6.32789 20.4353 6.3145 19.9593C6.21408 17.6509 6.25871 15.341 6.25941 13.0312C6.25941 12.4189 6.28242 11.8072 6.31101 11.1963C6.32705 10.8692 6.34588 10.5428 6.394 10.2199C6.50419 9.4695 6.7141 8.75535 7.18343 8.14232C7.60696 7.57553 8.18778 7.14577 8.85363 6.9065C9.28233 6.75534 9.72687 6.65355 10.1786 6.60313C10.5915 6.5557 11.0064 6.54175 11.4214 6.52641C13.0211 6.46922 14.6216 6.48736 16.2221 6.48666C17.0094 6.48666 17.7974 6.48666 18.5855 6.50549C19.0471 6.51665 19.5095 6.53269 19.9704 6.56128C20.5021 6.58811 21.0288 6.67753 21.5395 6.82769C22.3787 7.07435 23.1026 7.61186 23.5814 8.34387C23.8324 8.73755 24.0134 9.17171 24.1163 9.62712C24.2073 10.0008 24.2645 10.382 24.2872 10.766C24.3729 12.043 24.366 13.3213 24.3715 14.6018C24.375 15.7992 24.3701 16.9995 24.3618 18.1991V18.197Z" fill="white"/>
<path d="M15.2944 9.86906C14.1721 9.87237 13.0761 10.2082 12.1446 10.8341C11.2132 11.4601 10.4881 12.348 10.061 13.3859C9.63393 14.4237 9.52397 15.5648 9.74503 16.6651C9.96609 17.7654 10.5083 18.7755 11.303 19.5678C12.0978 20.3601 13.1096 20.8991 14.2105 21.1166C15.3114 21.3342 16.4521 21.2206 17.4885 20.7902C18.5249 20.3597 19.4105 19.6318 20.0334 18.6983C20.6564 17.7648 20.9887 16.6676 20.9884 15.5453C20.9877 14.7986 20.8398 14.0593 20.5531 13.3698C20.2665 12.6803 19.8467 12.054 19.3179 11.5268C18.7891 10.9996 18.1615 10.5819 17.4711 10.2974C16.7807 10.013 16.041 9.86741 15.2944 9.86906ZM15.3076 19.2305C14.5792 19.2296 13.8674 19.0129 13.2621 18.6075C12.6569 18.2022 12.1854 17.6265 11.9073 16.9532C11.6292 16.2799 11.5569 15.5393 11.6997 14.825C11.8424 14.1106 12.1937 13.4547 12.7091 12.9399C13.2246 12.4252 13.8811 12.0749 14.5956 11.9333C15.3101 11.7916 16.0505 11.865 16.7233 12.1442C17.3961 12.4233 17.9711 12.8957 18.3755 13.5016C18.7799 14.1075 18.9956 14.8197 18.9953 15.5481C18.9938 16.5252 18.6046 17.4619 17.9132 18.1523C17.2218 18.8427 16.2847 19.2305 15.3076 19.2305ZM21.2109 8.3194C20.9492 8.32023 20.6936 8.39854 20.4763 8.54446C20.259 8.69038 20.0899 8.89738 19.9901 9.13933C19.8903 9.38129 19.8644 9.64737 19.9157 9.90403C19.967 10.1607 20.0931 10.3964 20.2781 10.5815C20.4632 10.7665 20.6989 10.8926 20.9555 10.9439C21.2122 10.9952 21.4782 10.9693 21.7202 10.8695C21.9621 10.7697 22.1691 10.6005 22.315 10.3833C22.4609 10.166 22.5392 9.9104 22.54 9.64868C22.5406 9.47396 22.5066 9.30086 22.44 9.13933C22.3734 8.97781 22.2755 8.83105 22.152 8.70751C22.0284 8.58396 21.8817 8.48607 21.7202 8.41946C21.5587 8.35286 21.3856 8.31885 21.2109 8.3194Z" fill="white"/>
<path d="M15.2944 9.86903C14.1721 9.87234 13.0761 10.2082 12.1446 10.8341C11.2132 11.4601 10.4881 12.348 10.061 13.3858C9.63393 14.4237 9.52397 15.5648 9.74503 16.6651C9.96609 17.7654 10.5083 18.7755 11.303 19.5678C12.0978 20.3601 13.1096 20.8991 14.2105 21.1166C15.3114 21.3342 16.4521 21.2206 17.4885 20.7901C18.5249 20.3597 19.4105 19.6318 20.0334 18.6983C20.6564 17.7648 20.9887 16.6676 20.9884 15.5453C20.9877 14.7986 20.8398 14.0593 20.5531 13.3698C20.2665 12.6802 19.8467 12.054 19.3179 11.5268C18.7891 10.9996 18.1615 10.5818 17.4711 10.2974C16.7807 10.0129 16.041 9.86738 15.2944 9.86903ZM15.3076 19.2304C14.5792 19.2296 13.8674 19.0128 13.2621 18.6075C12.6569 18.2021 12.1854 17.6265 11.9073 16.9532C11.6292 16.2799 11.5569 15.5393 11.6997 14.825C11.8424 14.1106 12.1937 13.4546 12.7091 12.9399C13.2246 12.4252 13.8811 12.0749 14.5956 11.9333C15.3101 11.7916 16.0505 11.865 16.7233 12.1442C17.3962 12.4233 17.9711 12.8957 18.3755 13.5016C18.7799 14.1074 18.9956 14.8196 18.9953 15.5481C18.9938 16.5252 18.6046 17.4618 17.9132 18.1522C17.2218 18.8427 16.2847 19.2304 15.3076 19.2304Z" fill="white"/>
<path d="M21.2107 8.3194C21.4728 8.3194 21.729 8.39711 21.9469 8.54271C22.1648 8.68832 22.3346 8.89527 22.4349 9.1374C22.5352 9.37952 22.5614 9.64596 22.5103 9.903C22.4592 10.16 22.333 10.3961 22.1477 10.5815C21.9624 10.7668 21.7263 10.893 21.4692 10.9441C21.2122 10.9952 20.9458 10.969 20.7037 10.8687C20.4616 10.7684 20.2546 10.5986 20.109 10.3807C19.9634 10.1628 19.8857 9.90656 19.8857 9.64449C19.8857 9.29305 20.0253 8.95601 20.2738 8.70751C20.5223 8.459 20.8593 8.3194 21.2107 8.3194Z" fill="white"/>
</g>
<defs>
<filter id="filter0_f_46_703" x="0.256836" y="0.492676" width="30.1064" height="30.106" filterUnits="userSpaceOnUse" color-interpolation-filters="sRGB">
<feFlood flood-opacity="0" result="BackgroundImageFix"/>
<feBlend mode="normal" in="SourceGraphic" in2="BackgroundImageFix" result="shape"/>
<feGaussianBlur stdDeviation="2" result="effect1_foregroundBlur_46_703"/>
</filter>
<clipPath id="clip0_46_703">
<rect width="22.106" height="22.106" fill="white" transform="translate(4.25684 4.49268)"/>
</clipPath>
<clipPath id="clip1_46_703">
<rect width="22.106" height="22.106" fill="white" transform="translate(4.25684 4.49268)"/>
</clipPath>
</defs>
</svg>
